<svg width="1440" height="2758" viewBox="0 0 1440 2758" fill="none" xmlns="http://www.w3.org/2000/svg">
<path d="M0 323H1440V1679H0V323Z" fill="#71BFE5"/>
<path d="M-620 2758C-645 2758 -656.667 2745.5 -655 2720.5L-562.5 1588L-472.5 218C-470.833 194.667 -458.333 183 -435 183H-59.9999C-35 183 -23.3333 195.5 -24.9999 220.5L-64.9999 633C-9.99995 543 59.1667 459.667 142.5 383C227.5 304.667 325 242.167 435 195.5C546.667 147.167 670 123 805 123C978.333 123 1128.33 162.167 1255 240.5C1383.33 318.833 1479.17 434.667 1542.5 588C1607.5 739.667 1631.67 928.833 1615 1155.5L1582.5 1658L1515 2723C1513.33 2746.33 1500.83 2758 1477.5 2758H1082.5C1059.17 2758 1048.33 2745.5 1050 2720.5L1130 1670.5L1165 1178C1176.67 1016.33 1162.5 883 1122.5 778C1084.17 673 1025 595.5 945 545.5C865 495.5 770 470.5 660 470.5C571.667 470.5 488.333 488.833 410 525.5C333.333 560.5 262.5 612.167 197.5 680.5C134.167 747.167 78.3334 828 30 923C-18.3333 1018 -57.4999 1125.5 -87.4999 1245.5L-120 1673L-185 2723C-186.667 2746.33 -199.167 2758 -222.5 2758H-620Z" fill="#2D86B1"/>
<path d="M-620 2635C-645 2635 -656.667 2622.5 -655 2597.5L-562.5 1465L-472.5 95C-470.833 71.6665 -458.333 59.9998 -435 59.9998H-59.9999C-35 59.9998 -23.3333 72.4998 -24.9999 97.4998L-64.9999 510C-9.99995 420 59.1667 336.667 142.5 260C227.5 181.667 325 119.167 435 72.4998C546.667 24.1666 670 0 805 0C978.333 0 1128.33 39.1666 1255 117.5C1383.33 195.833 1479.17 311.667 1542.5 465C1607.5 616.667 1631.67 805.833 1615 1032.5L1582.5 1535L1515 2600C1513.33 2623.33 1500.83 2635 1477.5 2635H1082.5C1059.17 2635 1048.33 2622.5 1050 2597.5L1130 1547.5L1165 1055C1176.67 893.333 1162.5 760 1122.5 655C1084.17 550 1025 472.5 945 422.5C865 372.5 770 347.5 660 347.5C571.667 347.5 488.333 365.833 410 402.5C333.333 437.5 262.5 489.167 197.5 557.5C134.167 624.167 78.3334 705 30 800C-18.3333 895 -57.4999 1002.5 -87.4999 1122.5L-120 1550L-185 2600C-186.667 2623.33 -199.167 2635 -222.5 2635H-620Z" fill="white"/>
</svg>
