<svg width="1440" height="1468" viewBox="0 0 1440 1468" fill="none" xmlns="http://www.w3.org/2000/svg">
<rect y="49" width="1440" height="532" fill="#71BFE5"/>
<g clip-path="url(#clip0_76_9)">
<rect width="230.4" height="115.297" transform="translate(1267 13)" fill="#71BFE5"/>
<path d="M1353 69C1351.72 69 1351.08 68.36 1351.08 67.08V48.68C1351.08 48.2533 1351.13 47.88 1351.24 47.56C1351.45 47.1333 1351.67 46.76 1351.88 46.44L1441.64 -74.36H1359.88C1358.6 -74.36 1357.96 -75 1357.96 -76.28V-93.88C1357.96 -95.16 1358.6 -95.8 1359.88 -95.8H1474.92C1476.2 -95.8 1476.84 -95.16 1476.84 -93.88V-75.48C1476.84 -75.0533 1476.79 -74.6267 1476.68 -74.2C1476.57 -73.88 1476.36 -73.56 1476.04 -73.24L1385.96 47.56H1478.92C1480.31 47.56 1481 48.2 1481 49.48V67.08C1481 68.36 1480.31 69 1478.92 69H1353Z" fill="#2D86B1"/>
</g>
<g clip-path="url(#clip1_76_9)">
<rect width="230" height="231.592" transform="translate(1267 127.798)" fill="#71BFE5"/>
<path d="M1225.24 341.798C1223.96 341.798 1223.32 341.158 1223.32 339.878L1223.96 232.038L1223.48 119.718C1223.48 118.438 1224.12 117.798 1225.4 117.798H1262.2C1263.27 117.798 1264.01 118.331 1264.44 119.398L1317.08 255.238L1335.96 304.038L1354.2 255.238L1405.56 119.398C1405.99 118.331 1406.73 117.798 1407.8 117.798H1442.36C1443.64 117.798 1444.28 118.438 1444.28 119.718L1443.8 232.038L1444.44 339.878C1444.44 341.158 1443.8 341.798 1442.52 341.798H1416.28C1415 341.798 1414.36 341.158 1414.36 339.878L1414.68 236.678L1415.64 157.798L1346.52 340.198C1346.2 341.265 1345.45 341.798 1344.28 341.798H1323.64C1322.47 341.798 1321.67 341.265 1321.24 340.198L1249.56 155.398L1250.68 236.678L1251 339.878C1251 341.158 1250.36 341.798 1249.08 341.798H1225.24Z" fill="#2D86B1"/>
</g>
<g clip-path="url(#clip2_76_9)">
<rect width="115" height="115.796" transform="translate(1152 243.594)" fill="#71BFE5"/>
<path d="M1154.28 389.994C1153 389.994 1152.36 389.354 1152.36 388.074L1153 263.274L1152.36 172.714C1152.36 171.434 1153 170.794 1154.28 170.794H1179.88C1181.16 170.794 1181.75 171.434 1181.64 172.714L1181 198.954C1184.63 192.447 1189 186.847 1194.12 182.154C1199.35 177.354 1205.21 173.727 1211.72 171.274C1218.33 168.714 1225.64 167.434 1233.64 167.434C1244.73 167.434 1254.49 169.621 1262.92 173.994C1271.45 178.367 1278.6 184.447 1284.36 192.234C1290.12 199.914 1294.44 208.927 1297.32 219.274C1300.31 229.514 1301.8 240.661 1301.8 252.714C1301.8 264.661 1300.25 275.861 1297.16 286.314C1294.07 296.661 1289.59 305.781 1283.72 313.674C1277.85 321.567 1270.65 327.754 1262.12 332.234C1253.69 336.607 1244.04 338.794 1233.16 338.794C1227.29 338.794 1221.8 338.154 1216.68 336.874C1211.56 335.701 1206.81 333.887 1202.44 331.434C1198.17 328.874 1194.28 325.781 1190.76 322.154C1187.24 318.421 1184.15 314.154 1181.48 309.354L1182.12 388.074C1182.12 389.354 1181.48 389.994 1180.2 389.994H1154.28ZM1225.48 318.314C1236.04 318.314 1244.73 315.647 1251.56 310.314C1258.49 304.874 1263.61 297.407 1266.92 287.914C1270.33 278.314 1272.04 267.274 1272.04 254.794C1272.04 244.874 1271.08 235.861 1269.16 227.754C1267.35 219.647 1264.52 212.607 1260.68 206.634C1256.95 200.661 1252.2 196.074 1246.44 192.874C1240.79 189.674 1234.01 188.074 1226.12 188.074C1216.73 188.074 1208.63 190.474 1201.8 195.274C1194.97 199.967 1189.69 207.061 1185.96 216.554C1182.23 225.941 1180.31 237.621 1180.2 251.594C1180.09 262.154 1181 271.594 1182.92 279.914C1184.95 288.127 1187.88 295.114 1191.72 300.874C1195.67 306.527 1200.47 310.847 1206.12 313.834C1211.77 316.821 1218.23 318.314 1225.48 318.314Z" fill="#2D86B1"/>
</g>
<g clip-path="url(#clip3_76_9)">
<rect width="173" height="114.798" transform="translate(1267 358.392)" fill="#71BFE5"/>
<path d="M1341.52 420.392L1378.64 398.312L1403.28 396.712H1427.76C1429.04 396.712 1429.68 397.352 1429.68 398.632V418.472C1429.68 419.752 1429.04 420.392 1427.76 420.392H1341.52ZM1320.08 424.392C1307.28 424.392 1295.33 422.632 1284.24 419.112C1273.25 415.592 1263.39 410.525 1254.64 403.912C1245.89 397.192 1238.43 389.085 1232.24 379.592C1226.05 370.099 1221.31 359.379 1218 347.432C1214.8 335.485 1213.2 322.525 1213.2 308.552C1213.2 290.739 1215.71 274.685 1220.72 260.392C1225.84 245.992 1233.09 233.725 1242.48 223.592C1251.87 213.459 1263.12 205.725 1276.24 200.392C1289.47 195.058 1304.13 192.392 1320.24 192.392C1333.15 192.392 1345.09 194.099 1356.08 197.512C1367.17 200.925 1377.09 205.939 1385.84 212.552C1394.59 219.165 1402.05 227.219 1408.24 236.712C1414.43 246.099 1419.17 256.872 1422.48 269.032C1425.79 281.085 1427.44 294.312 1427.44 308.712C1427.44 326.205 1424.88 342.099 1419.76 356.392C1414.64 370.579 1407.33 382.739 1397.84 392.872C1388.45 403.005 1377.2 410.792 1364.08 416.232C1350.96 421.672 1336.29 424.392 1320.08 424.392ZM1320.24 401.032C1332.19 401.032 1342.8 398.952 1352.08 394.792C1361.47 390.632 1369.47 384.552 1376.08 376.552C1382.8 368.552 1387.87 358.845 1391.28 347.432C1394.8 336.019 1396.56 323.112 1396.56 308.712C1396.56 294.312 1394.8 281.405 1391.28 269.992C1387.87 258.472 1382.85 248.712 1376.24 240.712C1369.63 232.605 1361.57 226.419 1352.08 222.152C1342.69 217.885 1332.03 215.752 1320.08 215.752C1308.13 215.752 1297.47 217.885 1288.08 222.152C1278.69 226.312 1270.69 232.445 1264.08 240.552C1257.57 248.552 1252.61 258.312 1249.2 269.832C1245.79 281.245 1244.08 294.205 1244.08 308.712C1244.08 323.005 1245.79 335.859 1249.2 347.272C1252.72 358.685 1257.79 368.392 1264.4 376.392C1271.01 384.392 1279.01 390.525 1288.4 394.792C1297.89 398.952 1308.51 401.032 1320.24 401.032Z" fill="#2D86B1"/>
</g>
<g clip-path="url(#clip4_76_9)">
<rect width="115" height="114.798" transform="translate(1152 359.39)" fill="#71BFE5"/>
<path d="M1154.28 521.39C1153 521.39 1152.36 520.75 1152.36 519.47L1153.16 437.23L1152.36 358.51C1152.36 357.23 1153 356.59 1154.28 356.59H1179.72C1180.89 356.59 1181.48 357.23 1181.48 358.51L1180.52 386.83C1184.36 380.003 1189.16 374.243 1194.92 369.55C1200.79 364.75 1207.24 361.123 1214.28 358.67C1221.43 356.217 1228.84 354.99 1236.52 354.99C1238.44 354.99 1240.31 355.097 1242.12 355.31C1243.93 355.523 1245.59 355.79 1247.08 356.11C1248.25 356.43 1248.84 357.177 1248.84 358.35V376.91C1248.84 378.297 1248.15 378.83 1246.76 378.51C1245.37 378.19 1243.83 377.977 1242.12 377.87C1240.52 377.763 1238.87 377.71 1237.16 377.71C1227.67 377.71 1218.81 379.683 1210.6 383.63C1202.49 387.577 1195.77 393.603 1190.44 401.71C1185.11 409.71 1182.07 419.897 1181.32 432.27L1181.64 519.47C1181.64 520.75 1181 521.39 1179.72 521.39H1154.28Z" fill="#2D86B1"/>
</g>
<g clip-path="url(#clip5_76_9)">
<rect width="288" height="114.798" transform="translate(1152 466.202)" fill="#71BFE5"/>
<path d="M1292.36 618.722C1277.53 618.722 1264.68 616.589 1253.8 612.322C1243.03 607.949 1234.71 601.442 1228.84 592.802C1222.97 584.055 1219.88 573.122 1219.56 560.002C1219.56 558.722 1220.2 558.082 1221.48 558.082H1245.96C1247.24 558.082 1247.88 558.722 1247.88 560.002C1248.2 573.655 1252.31 583.682 1260.2 590.082C1268.09 596.375 1279.35 599.522 1293.96 599.522C1302.07 599.522 1309.16 598.402 1315.24 596.162C1321.32 593.922 1326.01 590.615 1329.32 586.242C1332.73 581.869 1334.44 576.535 1334.44 570.242C1334.44 563.842 1332.41 558.882 1328.36 555.362C1324.31 551.842 1318.97 549.175 1312.36 547.362C1305.85 545.442 1298.6 543.895 1290.6 542.722C1282.71 541.442 1274.81 540.002 1266.92 538.402C1259.03 536.695 1251.77 534.242 1245.16 531.042C1238.55 527.842 1233.21 523.415 1229.16 517.762C1225.21 512.002 1223.24 504.375 1223.24 494.882C1223.24 484.429 1225.96 475.682 1231.4 468.642C1236.84 461.495 1244.41 456.109 1254.12 452.482C1263.93 448.749 1275.35 446.882 1288.36 446.882C1301.27 446.882 1312.73 448.749 1322.76 452.482C1332.89 456.109 1341 461.709 1347.08 469.282C1353.16 476.749 1356.47 486.295 1357 497.922C1357.11 499.202 1356.47 499.842 1355.08 499.842H1331.56C1330.39 499.842 1329.75 499.255 1329.64 498.082C1329.11 490.615 1327.03 484.535 1323.4 479.842C1319.88 475.042 1315.08 471.522 1309 469.282C1303.03 466.935 1296.04 465.762 1288.04 465.762C1280.57 465.762 1274.07 466.722 1268.52 468.642C1262.97 470.562 1258.71 473.602 1255.72 477.762C1252.73 481.815 1251.24 486.935 1251.24 493.122C1251.24 499.095 1253.21 503.735 1257.16 507.042C1261.21 510.242 1266.55 512.695 1273.16 514.402C1279.77 516.002 1287.03 517.389 1294.92 518.562C1302.81 519.629 1310.71 521.015 1318.6 522.722C1326.6 524.429 1333.85 526.935 1340.36 530.242C1346.97 533.549 1352.31 538.242 1356.36 544.322C1360.41 550.295 1362.44 558.242 1362.44 568.162C1362.44 576.162 1360.68 583.309 1357.16 589.602C1353.64 595.789 1348.73 601.069 1342.44 605.442C1336.15 609.709 1328.73 612.962 1320.2 615.202C1311.67 617.549 1302.39 618.722 1292.36 618.722Z" fill="#2D86B1"/>
</g>
<g clip-path="url(#clip6_76_9)">
<rect width="173" height="223.606" transform="translate(979 357.394)" fill="#71BFE5"/>
<path d="M1041 543.394C1028.73 543.394 1017.27 541.634 1006.6 538.114C995.933 534.594 986.28 529.527 977.64 522.914C969 516.194 961.587 508.087 955.4 498.594C949.213 489.1 944.467 478.38 941.16 466.434C937.853 454.38 936.2 441.314 936.2 427.234C936.2 409.42 938.76 393.42 943.88 379.234C949 364.94 956.2 352.727 965.48 342.594C974.867 332.46 985.853 324.727 998.44 319.394C1011.13 314.06 1024.95 311.394 1039.88 311.394C1056.95 311.394 1072.04 314.22 1085.16 319.874C1098.28 325.42 1109.16 333.634 1117.8 344.514C1126.44 355.394 1132.52 368.78 1136.04 384.674C1136.36 386.06 1135.77 386.754 1134.28 386.754H1107.4C1106.33 386.754 1105.64 386.22 1105.32 385.154C1101.69 368.407 1094.23 355.82 1082.92 347.394C1071.61 338.86 1057.32 334.594 1040.04 334.594C1029.05 334.594 1019.08 336.674 1010.12 340.834C1001.16 344.994 993.427 351.127 986.92 359.234C980.52 367.234 975.613 376.994 972.2 388.514C968.787 400.034 967.08 413.1 967.08 427.714C967.08 439.127 968.2 449.687 970.44 459.394C972.68 468.994 975.933 477.58 980.2 485.154C984.467 492.62 989.64 498.967 995.72 504.194C1001.8 509.42 1008.63 513.42 1016.2 516.194C1023.77 518.86 1031.99 520.194 1040.84 520.194C1055.56 520.194 1067.99 517.207 1078.12 511.234C1088.36 505.154 1096.15 496.567 1101.48 485.474C1106.81 474.38 1109.59 461.207 1109.8 445.954H1040.04C1038.76 445.954 1038.12 445.314 1038.12 444.034V425.314C1038.12 424.034 1038.76 423.394 1040.04 423.394H1139.24C1140.52 423.394 1141.16 424.14 1141.16 425.634C1141.48 451.02 1137.85 472.514 1130.28 490.114C1122.81 507.607 1111.56 520.887 1096.52 529.954C1081.59 538.914 1063.08 543.394 1041 543.394Z" fill="#2D86B1"/>
</g>
<g clip-path="url(#clip7_76_9)">
<rect width="115" height="230.594" transform="translate(1152 13)" fill="#71BFE5"/>
<path d="M1183.48 209.48C1168.01 209.48 1155.27 206.173 1145.24 199.56C1135.32 192.84 1127.96 183.187 1123.16 170.6C1118.36 157.907 1115.85 142.707 1115.64 125C1115.64 123.72 1116.28 123.08 1117.56 123.08H1142.84C1144.12 123.08 1144.76 123.72 1144.76 125C1144.87 137.8 1146.09 148.733 1148.44 157.8C1150.79 166.867 1154.73 173.8 1160.28 178.6C1165.93 183.4 1173.72 185.8 1183.64 185.8C1193.88 185.8 1201.77 183.4 1207.32 178.6C1212.97 173.8 1216.87 166.92 1219 157.96C1221.24 149 1222.36 138.173 1222.36 125.48V50.76L1221.88 -17.08C1221.88 -18.36 1222.52 -19 1223.8 -19H1250.84C1252.12 -19 1252.76 -18.36 1252.76 -17.08L1252.28 50.76V125.64C1252.28 143.987 1249.83 159.4 1244.92 171.88C1240.01 184.253 1232.49 193.64 1222.36 200.04C1212.23 206.333 1199.27 209.48 1183.48 209.48Z" fill="#2D86B1"/>
</g>
<g clip-path="url(#clip8_76_9)">
<rect width="230.4" height="230.594" transform="translate(-27 13)" fill="#71BFE5"/>
<path d="M54.24 301C52.96 301 52.32 300.36 52.32 299.08L53.12 189.16L52.32 78.92C52.32 77.64 52.96 77 54.24 77H187.36C188.64 77 189.28 77.64 189.28 78.92V97.8C189.28 99.08 188.64 99.72 187.36 99.72H82.56L81.92 180.04H182.08C183.36 180.04 184 180.68 184 181.96V200.68C184 201.96 183.36 202.6 182.08 202.6H81.92L82.56 299.08C82.56 300.36 81.92 301 80.64 301H54.24Z" fill="white"/>
</g>
<g clip-path="url(#clip9_76_9)">
<rect width="115" height="115.796" transform="translate(0 243.594)" fill="#71BFE5"/>
<path d="M97.08 450.314C84.3867 450.421 72.8133 448.661 62.36 445.034C52.0133 441.407 43.64 435.701 37.24 427.914C30.84 420.234 27.16 410.421 26.2 398.474C25.9867 397.194 26.5733 396.554 27.96 396.554H53.24C54.3067 396.554 55 397.141 55.32 398.314C56.1733 405.674 58.4667 411.701 62.2 416.394C65.9333 421.087 70.84 424.554 76.92 426.794C83.1067 429.034 90.0933 430.154 97.88 430.154C111.107 430.154 121.933 425.781 130.36 417.034C138.787 408.394 143 394.527 143 375.434V357.194C139.48 363.381 135.213 368.714 130.2 373.194C125.187 377.567 119.48 380.927 113.08 383.274C106.68 385.621 99.5867 386.794 91.8 386.794C80.28 386.794 70.1467 384.767 61.4 380.714C52.6533 376.554 45.2933 370.794 39.32 363.434C33.4533 355.967 29.0267 347.274 26.04 337.354C23.0533 327.434 21.56 316.607 21.56 304.874C21.56 293.141 23.0533 282.154 26.04 271.914C29.1333 261.674 33.6133 252.661 39.48 244.874C45.4533 237.087 52.7067 231.007 61.24 226.634C69.88 222.261 79.7467 220.074 90.84 220.074C96.7067 220.074 102.147 220.714 107.16 221.994C112.28 223.274 116.973 225.194 121.24 227.754C125.613 230.207 129.56 233.301 133.08 237.034C136.6 240.661 139.693 244.874 142.36 249.674L141.56 224.714C141.453 223.434 142.093 222.794 143.48 222.794H168.92C170.2 222.794 170.84 223.434 170.84 224.714L170.2 307.274L170.36 375.754C170.467 399.647 164.12 418.047 151.32 430.954C138.627 443.861 120.547 450.314 97.08 450.314ZM98.2 366.954C107.267 366.954 115.107 364.767 121.72 360.394C128.44 355.914 133.613 349.194 137.24 340.234C140.973 331.274 142.893 319.914 143 306.154C143.107 295.701 142.147 286.367 140.12 278.154C138.2 269.941 135.267 263.007 131.32 257.354C127.48 251.701 122.733 247.381 117.08 244.394C111.427 241.407 104.973 239.914 97.72 239.914C87.3733 239.807 78.7867 242.367 71.96 247.594C65.1333 252.821 59.96 260.287 56.44 269.994C53.0267 279.701 51.32 291.007 51.32 303.914C51.32 313.941 52.28 322.901 54.2 330.794C56.12 338.581 59.0533 345.194 63 350.634C66.9467 356.074 71.8533 360.181 77.72 362.954C83.5867 365.727 90.4133 367.061 98.2 366.954Z" fill="#2D86B1"/>
</g>
<g clip-path="url(#clip10_76_9)">
<rect width="115" height="115.796" transform="translate(115 243.594)" fill="#71BFE5"/>
<path d="M162.44 447.994C161.8 447.994 161.32 447.781 161 447.354C160.68 447.034 160.627 446.501 160.84 445.754L179.08 394.074L113.8 231.034C113.267 229.541 113.8 228.794 115.4 228.794H144.36C145.427 228.794 146.173 229.327 146.6 230.394L177.32 312.474L193.48 355.994L207.08 312.474L233.32 230.394C233.64 229.327 234.387 228.794 235.56 228.794H261.64C262.387 228.794 262.92 229.007 263.24 229.434C263.56 229.754 263.56 230.287 263.24 231.034L188.36 446.394C188.04 447.461 187.293 447.994 186.12 447.994H162.44Z" fill="#2D86B1"/>
</g>
<g clip-path="url(#clip11_76_9)">
<rect width="230.4" height="230.594" transform="translate(230.4 13)" fill="#71BFE5"/>
<path d="M353.48 229C340.68 229 328.733 227.24 317.64 223.72C306.653 220.2 296.787 215.133 288.04 208.52C279.293 201.8 271.827 193.693 265.64 184.2C259.453 174.707 254.707 163.987 251.4 152.04C248.2 140.093 246.6 127.133 246.6 113.16C246.6 95.3467 249.107 79.2933 254.12 65C259.24 50.6 266.493 38.3333 275.88 28.2C285.267 18.0667 296.52 10.3333 309.64 4.99998C322.867 -0.333347 337.533 -3.00001 353.64 -3.00001C366.547 -3.00001 378.493 -1.29334 389.48 2.12C400.573 5.53333 410.493 10.5467 419.24 17.16C427.987 23.7733 435.453 31.8267 441.64 41.32C447.827 50.7067 452.573 61.48 455.88 73.64C459.187 85.6933 460.84 98.92 460.84 113.32C460.84 130.813 458.28 146.707 453.16 161C448.04 175.187 440.733 187.347 431.24 197.48C421.853 207.613 410.6 215.4 397.48 220.84C384.36 226.28 369.693 229 353.48 229ZM353.64 205.64C365.587 205.64 376.2 203.56 385.48 199.4C394.867 195.24 402.867 189.16 409.48 181.16C416.2 173.16 421.267 163.453 424.68 152.04C428.2 140.627 429.96 127.72 429.96 113.32C429.96 98.92 428.2 86.0133 424.68 74.6C421.267 63.08 416.253 53.32 409.64 45.32C403.027 37.2133 394.973 31.0267 385.48 26.76C376.093 22.4933 365.427 20.36 353.48 20.36C341.533 20.36 330.867 22.4933 321.48 26.76C312.093 30.92 304.093 37.0533 297.48 45.16C290.973 53.16 286.013 62.92 282.6 74.44C279.187 85.8533 277.48 98.8133 277.48 113.32C277.48 127.613 279.187 140.467 282.6 151.88C286.12 163.293 291.187 173 297.8 181C304.413 189 312.413 195.133 321.8 199.4C331.293 203.56 341.907 205.64 353.64 205.64Z" fill="white"/>
</g>
<g clip-path="url(#clip12_76_9)">
<rect width="115.2" height="115.297" transform="translate(806.4 243.594)" fill="#71BFE5"/>
<path d="M796.4 363.594C784.133 363.594 772.667 361.834 762 358.314C751.333 354.794 741.68 349.727 733.04 343.114C724.4 336.394 716.987 328.287 710.8 318.794C704.613 309.301 699.867 298.581 696.56 286.634C693.253 274.581 691.6 261.514 691.6 247.434C691.6 229.621 694.16 213.621 699.28 199.434C704.4 185.141 711.6 172.927 720.88 162.794C730.267 152.661 741.253 144.927 753.84 139.594C766.533 134.261 780.347 131.594 795.28 131.594C812.347 131.594 827.44 134.421 840.56 140.074C853.68 145.621 864.56 153.834 873.2 164.714C881.84 175.594 887.92 188.981 891.44 204.874C891.76 206.261 891.173 206.954 889.68 206.954H862.8C861.733 206.954 861.04 206.421 860.72 205.354C857.093 188.607 849.627 176.021 838.32 167.594C827.013 159.061 812.72 154.794 795.44 154.794C784.453 154.794 774.48 156.874 765.52 161.034C756.56 165.194 748.827 171.327 742.32 179.434C735.92 187.434 731.013 197.194 727.6 208.714C724.187 220.234 722.48 233.301 722.48 247.914C722.48 259.327 723.6 269.887 725.84 279.594C728.08 289.194 731.333 297.781 735.6 305.354C739.867 312.821 745.04 319.167 751.12 324.394C757.2 329.621 764.027 333.621 771.6 336.394C779.173 339.061 787.387 340.394 796.24 340.394C810.96 340.394 823.387 337.407 833.52 331.434C843.76 325.354 851.547 316.767 856.88 305.674C862.213 294.581 864.987 281.407 865.2 266.154H795.44C794.16 266.154 793.52 265.514 793.52 264.234V245.514C793.52 244.234 794.16 243.594 795.44 243.594H894.64C895.92 243.594 896.56 244.341 896.56 245.834C896.88 271.221 893.253 292.714 885.68 310.314C878.213 327.807 866.96 341.087 851.92 350.154C836.987 359.114 818.48 363.594 796.4 363.594Z" fill="#2D86B1"/>
</g>
<g clip-path="url(#clip13_76_9)">
<rect width="231" height="115.297" transform="translate(921 243.594)" fill="#71BFE5"/>
<path d="M1009.36 467.594C1008.08 467.594 1007.44 466.954 1007.44 465.674L1008.56 356.714L1007.76 266.314H944.56C943.28 266.314 942.64 265.674 942.64 264.394V245.514C942.64 244.234 943.28 243.594 944.56 243.594H1101.36C1102.64 243.594 1103.28 244.234 1103.28 245.514V264.394C1103.28 265.674 1102.64 266.314 1101.36 266.314H1038.16L1037.36 356.714L1038.48 465.674C1038.48 466.954 1037.84 467.594 1036.56 467.594H1009.36Z" fill="#2D86B1"/>
</g>
<g clip-path="url(#clip14_76_9)">
<rect width="115.2" height="115.297" transform="translate(1036.8 13)" fill="#71BFE5"/>
<path d="M1001.04 136C999.76 136 999.12 135.36 999.12 134.08L999.76 20.48L999.12 -86.08C999.12 -87.36 999.76 -88 1001.04 -88H1080.24C1097.2 -88 1111.81 -85.5467 1124.08 -80.64C1136.45 -75.7333 1145.95 -68.4267 1152.56 -58.72C1159.17 -49.0133 1162.48 -36.96 1162.48 -22.56C1162.48 -4.42667 1157.47 9.86666 1147.44 20.32C1137.52 30.7733 1124.19 37.6 1107.44 40.8L1166.64 133.6C1167.07 134.24 1167.17 134.827 1166.96 135.36C1166.75 135.787 1166.27 136 1165.52 136H1134.8C1133.73 136 1132.99 135.573 1132.56 134.72L1110.48 98.4L1075.92 43.68C1075.71 43.68 1075.49 43.68 1075.28 43.68C1075.07 43.68 1074.85 43.68 1074.64 43.68H1028.88L1029.36 134.08C1029.36 135.36 1028.72 136 1027.44 136H1001.04ZM1028.72 21.44H1083.44C1093.25 21.44 1101.89 19.9467 1109.36 16.96C1116.83 13.9733 1122.64 9.33333 1126.8 3.04C1131.07 -3.36001 1133.2 -11.7333 1133.2 -22.08C1133.2 -36.48 1128.77 -47.3067 1119.92 -54.56C1111.07 -61.92 1098.75 -65.6 1082.96 -65.6H1029.2L1028.72 21.44Z" fill="#2D86B1"/>
</g>
<g clip-path="url(#clip15_76_9)">
<rect width="115.2" height="115.297" transform="translate(1036.8 128.297)" fill="#71BFE5"/>
<path d="M1090.8 367.297C1089.52 367.297 1088.88 366.657 1088.88 365.377L1089.68 292.897V223.937H1065.68C1064.4 223.937 1063.76 223.297 1063.76 222.017V204.417C1063.76 203.137 1064.4 202.497 1065.68 202.497H1089.68V187.617C1089.68 175.67 1091.81 166.177 1096.08 159.137C1100.45 151.99 1105.95 146.87 1112.56 143.777C1119.17 140.684 1126.05 139.084 1133.2 138.977C1137.15 138.977 1141.09 139.244 1145.04 139.777C1149.09 140.31 1152.67 140.95 1155.76 141.697C1156.83 141.91 1157.36 142.604 1157.36 143.777V160.577C1157.36 162.07 1156.61 162.604 1155.12 162.177C1152.77 161.537 1150.27 161.11 1147.6 160.897C1145.04 160.577 1142.32 160.417 1139.44 160.417C1132.93 160.417 1127.76 162.657 1123.92 167.137C1120.19 171.617 1118.32 179.19 1118.32 189.857V202.497H1155.28C1156.56 202.497 1157.2 203.137 1157.2 204.417V222.017C1157.2 223.297 1156.56 223.937 1155.28 223.937H1118.32V292.897L1119.12 365.377C1119.12 366.657 1118.48 367.297 1117.2 367.297H1090.8Z" fill="#2D86B1"/>
</g>
<g clip-path="url(#clip16_76_9)">
<rect width="115.2" height="115.297" transform="translate(460.8 128.297)" fill="#71BFE5"/>
<path d="M551.16 352.297C549.88 352.297 549.24 351.657 549.24 350.377L550.36 241.417L549.56 151.017H486.36C485.08 151.017 484.44 150.377 484.44 149.097V130.217C484.44 128.937 485.08 128.297 486.36 128.297H643.16C644.44 128.297 645.08 128.937 645.08 130.217V149.097C645.08 150.377 644.44 151.017 643.16 151.017H579.96L579.16 241.417L580.28 350.377C580.28 351.657 579.64 352.297 578.36 352.297H551.16Z" fill="#2D86B1"/>
</g>
<g clip-path="url(#clip17_76_9)">
<rect width="115.2" height="115.297" transform="translate(576 128.297)" fill="#71BFE5"/>
<path d="M608.28 311.297C607 311.297 606.36 310.657 606.36 309.377L607.16 227.137L606.36 148.417C606.36 147.137 607 146.497 608.28 146.497H633.72C634.893 146.497 635.48 147.137 635.48 148.417L634.52 176.737C638.36 169.91 643.16 164.15 648.92 159.457C654.787 154.657 661.24 151.03 668.28 148.577C675.427 146.124 682.84 144.897 690.52 144.897C692.44 144.897 694.307 145.004 696.12 145.217C697.933 145.43 699.587 145.697 701.08 146.017C702.253 146.337 702.84 147.084 702.84 148.257V166.817C702.84 168.204 702.147 168.737 700.76 168.417C699.373 168.097 697.827 167.884 696.12 167.777C694.52 167.67 692.867 167.617 691.16 167.617C681.667 167.617 672.813 169.59 664.6 173.537C656.493 177.484 649.773 183.51 644.44 191.617C639.107 199.617 636.067 209.804 635.32 222.177L635.64 309.377C635.64 310.657 635 311.297 633.72 311.297H608.28Z" fill="#2D86B1"/>
</g>
<g clip-path="url(#clip18_76_9)">
<rect width="230.4" height="115.297" transform="translate(460.8 13)" fill="#71BFE5"/>
<path d="M514.04 127C512.76 127 512.12 126.36 512.12 125.08L512.76 11.48L512.12 -95.08C512.12 -96.36 512.76 -97 514.04 -97H593.24C610.2 -97 624.813 -94.5467 637.08 -89.64C649.453 -84.7333 658.946 -77.4267 665.56 -67.72C672.173 -58.0133 675.48 -45.96 675.48 -31.56C675.48 -13.4267 670.466 0.86666 660.44 11.32C650.52 21.7733 637.186 28.6 620.44 31.8L679.64 124.6C680.066 125.24 680.173 125.827 679.96 126.36C679.746 126.787 679.266 127 678.52 127H647.8C646.733 127 645.986 126.573 645.56 125.72L623.48 89.4L588.92 34.68C588.706 34.68 588.493 34.68 588.28 34.68C588.066 34.68 587.853 34.68 587.64 34.68H541.88L542.36 125.08C542.36 126.36 541.72 127 540.44 127H514.04ZM541.72 12.44H596.44C606.253 12.44 614.893 10.9467 622.36 7.96C629.826 4.97333 635.64 0.33333 639.8 -5.96C644.066 -12.36 646.2 -20.7333 646.2 -31.08C646.2 -45.48 641.773 -56.3067 632.92 -63.56C624.066 -70.92 611.746 -74.6 595.96 -74.6H542.2L541.72 12.44Z" fill="white"/>
</g>
<g clip-path="url(#clip19_76_9)">
<rect width="230.4" height="230.594" transform="translate(691.2 13)" fill="#71BFE5"/>
<path d="M649.44 227C648.16 227 647.52 226.36 647.52 225.08L648.16 117.24L647.68 4.92C647.68 3.63999 648.32 2.99998 649.6 2.99998H686.4C687.467 2.99998 688.214 3.53332 688.64 4.59998L741.28 140.44L760.16 189.24L778.4 140.44L829.76 4.59998C830.187 3.53332 830.934 2.99998 832 2.99998H866.56C867.84 2.99998 868.48 3.63999 868.48 4.92L868 117.24L868.64 225.08C868.64 226.36 868 227 866.72 227H840.48C839.2 227 838.56 226.36 838.56 225.08L838.88 121.88L839.84 43L770.72 225.4C770.4 226.467 769.654 227 768.48 227H747.84C746.667 227 745.867 226.467 745.44 225.4L673.76 40.6L674.88 121.88L675.2 225.08C675.2 226.36 674.56 227 673.28 227H649.44Z" fill="white"/>
</g>
<g clip-path="url(#clip20_76_9)">
<rect width="115.2" height="230.594" transform="translate(921.6 13)" fill="#71BFE5"/>
<path d="M826.84 217C826.2 217 825.72 216.84 825.4 216.52C825.08 216.093 825.027 215.507 825.24 214.76L904.44 -5.40002C904.76 -6.46668 905.453 -7.00002 906.52 -7.00002H942.52C943.587 -7.00002 944.28 -6.46668 944.6 -5.40002L1023 214.76C1023.53 216.253 1023 217 1021.4 217H994.36C993.187 217 992.44 216.467 992.12 215.4L969.24 149.32H878.04L855.48 215.4C855.16 216.467 854.413 217 853.24 217H826.84ZM885.56 125.32H961.56L923.16 14.12L885.56 125.32Z" fill="white"/>
</g>
<g clip-path="url(#clip21_76_9)">
<rect width="230.4" height="115.297" transform="translate(576 243.594)" fill="#71BFE5"/>
<path d="M622 359.594C620.72 359.594 620.08 358.954 620.08 357.674V339.274C620.08 338.847 620.133 338.474 620.24 338.154C620.453 337.727 620.667 337.354 620.88 337.034L710.64 216.234H628.88C627.6 216.234 626.96 215.594 626.96 214.314V196.714C626.96 195.434 627.6 194.794 628.88 194.794H743.92C745.2 194.794 745.84 195.434 745.84 196.714V215.114C745.84 215.541 745.787 215.967 745.68 216.394C745.573 216.714 745.36 217.034 745.04 217.354L654.96 338.154H747.92C749.307 338.154 750 338.794 750 340.074V357.674C750 358.954 749.307 359.594 747.92 359.594H622Z" fill="#2D86B1"/>
</g>
<g clip-path="url(#clip22_76_9)">
<rect width="115.2" height="115.297" transform="translate(460.8 243.594)" fill="#71BFE5"/>
<path d="M516.24 430.994C515.6 430.994 515.12 430.781 514.8 430.354C514.48 430.034 514.426 429.501 514.64 428.754L532.88 377.074L467.6 214.034C467.066 212.541 467.6 211.794 469.2 211.794H498.16C499.226 211.794 499.973 212.327 500.4 213.394L531.12 295.474L547.28 338.994L560.88 295.474L587.12 213.394C587.44 212.327 588.186 211.794 589.36 211.794H615.44C616.186 211.794 616.72 212.007 617.04 212.434C617.36 212.754 617.36 213.287 617.04 214.034L542.16 429.394C541.84 430.461 541.093 430.994 539.92 430.994H516.24Z" fill="#2D86B1"/>
</g>
<g clip-path="url(#clip23_76_9)">
<rect width="231" height="115.796" transform="translate(230 243.594)" fill="#71BFE5"/>
<path d="M375.52 455.594L412.64 433.514L437.28 431.914H461.76C463.04 431.914 463.68 432.554 463.68 433.834V453.674C463.68 454.954 463.04 455.594 461.76 455.594H375.52ZM354.08 459.594C341.28 459.594 329.333 457.834 318.24 454.314C307.253 450.794 297.387 445.727 288.64 439.114C279.893 432.394 272.427 424.287 266.24 414.794C260.053 405.301 255.307 394.581 252 382.634C248.8 370.687 247.2 357.727 247.2 343.754C247.2 325.941 249.707 309.887 254.72 295.594C259.84 281.194 267.093 268.927 276.48 258.794C285.867 248.661 297.12 240.927 310.24 235.594C323.467 230.261 338.133 227.594 354.24 227.594C367.147 227.594 379.093 229.301 390.08 232.714C401.173 236.127 411.093 241.141 419.84 247.754C428.587 254.367 436.053 262.421 442.24 271.914C448.427 281.301 453.173 292.074 456.48 304.234C459.787 316.287 461.44 329.514 461.44 343.914C461.44 361.407 458.88 377.301 453.76 391.594C448.64 405.781 441.333 417.941 431.84 428.074C422.453 438.207 411.2 445.994 398.08 451.434C384.96 456.874 370.293 459.594 354.08 459.594ZM354.24 436.234C366.187 436.234 376.8 434.154 386.08 429.994C395.467 425.834 403.467 419.754 410.08 411.754C416.8 403.754 421.867 394.047 425.28 382.634C428.8 371.221 430.56 358.314 430.56 343.914C430.56 329.514 428.8 316.607 425.28 305.194C421.867 293.674 416.853 283.914 410.24 275.914C403.627 267.807 395.573 261.621 386.08 257.354C376.693 253.087 366.027 250.954 354.08 250.954C342.133 250.954 331.467 253.087 322.08 257.354C312.693 261.514 304.693 267.647 298.08 275.754C291.573 283.754 286.613 293.514 283.2 305.034C279.787 316.447 278.08 329.407 278.08 343.914C278.08 358.207 279.787 371.061 283.2 382.474C286.72 393.887 291.787 403.594 298.4 411.594C305.013 419.594 313.013 425.727 322.4 429.994C331.893 434.154 342.507 436.234 354.24 436.234Z" fill="#2D86B1"/>
</g>
<g clip-path="url(#clip24_76_9)">
<rect width="230" height="117" transform="matrix(-1 0 0 1 230 359)" fill="#71BFE5"/>
<path d="M-0.76 535C-2.04 535 -2.68 534.36 -2.68 533.08L-2.04 419.48L-2.68 312.92C-2.68 311.64 -2.04 311 -0.76 311H78.44C95.4 311 110.013 313.453 122.28 318.36C134.653 323.267 144.147 330.573 150.76 340.28C157.373 349.987 160.68 362.04 160.68 376.44C160.68 394.573 155.667 408.867 145.64 419.32C135.72 429.773 122.387 436.6 105.64 439.8L164.84 532.6C165.267 533.24 165.373 533.827 165.16 534.36C164.947 534.787 164.467 535 163.72 535H133C131.933 535 131.187 534.573 130.76 533.72L108.68 497.4L74.12 442.68C73.9067 442.68 73.6933 442.68 73.48 442.68C73.2667 442.68 73.0533 442.68 72.84 442.68H27.08L27.56 533.08C27.56 534.36 26.92 535 25.64 535H-0.76ZM26.92 420.44H81.64C91.4533 420.44 100.093 418.947 107.56 415.96C115.027 412.973 120.84 408.333 125 402.04C129.267 395.64 131.4 387.267 131.4 376.92C131.4 362.52 126.973 351.693 118.12 344.44C109.267 337.08 96.9467 333.4 81.16 333.4H27.4L26.92 420.44Z" fill="#2D86B1"/>
</g>
<g clip-path="url(#clip25_76_9)">
<rect width="194" height="222" transform="matrix(-1 0 0 1 424 359)" fill="#71BFE5"/>
<path d="M233.24 583C231.96 583 231.32 582.36 231.32 581.08L232.12 467L231.32 360.92C231.32 359.64 231.96 359 233.24 359H370.36C371.64 359 372.28 359.64 372.28 360.92V379.8C372.28 381.08 371.64 381.72 370.36 381.72H261.56L260.92 452.12H362.68C363.96 452.12 364.6 452.76 364.6 454.04V472.76C364.6 474.04 363.96 474.68 362.68 474.68H260.92L261.56 560.28H372.92C374.2 560.28 374.84 560.92 374.84 562.2V581.08C374.84 582.36 374.2 583 372.92 583H233.24Z" fill="#2D86B1"/>
</g>
<g clip-path="url(#clip26_76_9)">
<rect width="230.4" height="231" transform="matrix(-1 0 0 1 1115 235)" fill="#71BFE5"/>
<path d="M1063.76 453C1065.04 453 1065.68 452.36 1065.68 451.08L1064.88 341.16L1065.68 230.92C1065.68 229.64 1065.04 229 1063.76 229H930.64C929.36 229 928.72 229.64 928.72 230.92V249.8C928.72 251.08 929.36 251.72 930.64 251.72H1035.44L1036.08 332.04H935.92C934.64 332.04 934 332.68 934 333.96V352.68C934 353.96 934.64 354.6 935.92 354.6H1036.08L1035.44 451.08C1035.44 452.36 1036.08 453 1037.36 453H1063.76Z" fill="#2D86B1"/>
</g>
<g clip-path="url(#clip27_76_9)">
<rect width="115" height="115" transform="matrix(-1 0 0 1 1115 466)" fill="#71BFE5"/>
<path d="M1017.92 672.72C1030.61 672.827 1042.19 671.067 1052.64 667.44C1062.99 663.813 1071.36 658.107 1077.76 650.32C1084.16 642.64 1087.84 632.827 1088.8 620.88C1089.01 619.6 1088.43 618.96 1087.04 618.96H1061.76C1060.69 618.96 1060 619.547 1059.68 620.72C1058.83 628.08 1056.53 634.107 1052.8 638.8C1049.07 643.493 1044.16 646.96 1038.08 649.2C1031.89 651.44 1024.91 652.56 1017.12 652.56C1003.89 652.56 993.067 648.187 984.64 639.44C976.213 630.8 972 616.933 972 597.84V579.6C975.52 585.787 979.787 591.12 984.8 595.6C989.813 599.973 995.52 603.333 1001.92 605.68C1008.32 608.027 1015.41 609.2 1023.2 609.2C1034.72 609.2 1044.85 607.173 1053.6 603.12C1062.35 598.96 1069.71 593.2 1075.68 585.84C1081.55 578.373 1085.97 569.68 1088.96 559.76C1091.95 549.84 1093.44 539.013 1093.44 527.28C1093.44 515.547 1091.95 504.56 1088.96 494.32C1085.87 484.08 1081.39 475.067 1075.52 467.28C1069.55 459.493 1062.29 453.413 1053.76 449.04C1045.12 444.667 1035.25 442.48 1024.16 442.48C1018.29 442.48 1012.85 443.12 1007.84 444.4C1002.72 445.68 998.027 447.6 993.76 450.16C989.387 452.613 985.44 455.707 981.92 459.44C978.4 463.067 975.307 467.28 972.64 472.08L973.44 447.12C973.547 445.84 972.907 445.2 971.52 445.2H946.08C944.8 445.2 944.16 445.84 944.16 447.12L944.8 529.68L944.64 598.16C944.533 622.053 950.88 640.453 963.68 653.36C976.373 666.267 994.453 672.72 1017.92 672.72ZM1016.8 589.36C1007.73 589.36 999.893 587.173 993.28 582.8C986.56 578.32 981.387 571.6 977.76 562.64C974.027 553.68 972.107 542.32 972 528.56C971.893 518.107 972.853 508.773 974.88 500.56C976.8 492.347 979.733 485.413 983.68 479.76C987.52 474.107 992.267 469.787 997.92 466.8C1003.57 463.813 1010.03 462.32 1017.28 462.32C1027.63 462.213 1036.21 464.773 1043.04 470C1049.87 475.227 1055.04 482.693 1058.56 492.4C1061.97 502.107 1063.68 513.413 1063.68 526.32C1063.68 536.347 1062.72 545.307 1060.8 553.2C1058.88 560.987 1055.95 567.6 1052 573.04C1048.05 578.48 1043.15 582.587 1037.28 585.36C1031.41 588.133 1024.59 589.467 1016.8 589.36Z" fill="#2D86B1"/>
</g>
<g clip-path="url(#clip28_76_9)">
<rect width="115" height="115" transform="matrix(-1 0 0 1 1000 466)" fill="#71BFE5"/>
<path d="M952.56 670.4C953.2 670.4 953.68 670.187 954 669.76C954.32 669.44 954.373 668.907 954.16 668.16L935.92 616.48L1001.2 453.44C1001.73 451.947 1001.2 451.2 999.6 451.2H970.64C969.573 451.2 968.827 451.733 968.4 452.8L937.68 534.88L921.52 578.4L907.92 534.88L881.68 452.8C881.36 451.733 880.613 451.2 879.44 451.2H853.36C852.613 451.2 852.08 451.413 851.76 451.84C851.44 452.16 851.44 452.693 851.76 453.44L926.64 668.8C926.96 669.867 927.707 670.4 928.88 670.4H952.56Z" fill="#2D86B1"/>
</g>
<g clip-path="url(#clip29_76_9)">
<rect width="231" height="231" transform="matrix(-1 0 0 1 885 235)" fill="#71BFE5"/>
<path d="M761.92 451C774.72 451 786.667 449.24 797.76 445.72C808.747 442.2 818.613 437.133 827.36 430.52C836.107 423.8 843.573 415.693 849.76 406.2C855.947 396.707 860.693 385.987 864 374.04C867.2 362.093 868.8 349.133 868.8 335.16C868.8 317.347 866.293 301.293 861.28 287C856.16 272.6 848.907 260.333 839.52 250.2C830.133 240.067 818.88 232.333 805.76 227C792.533 221.667 777.867 219 761.76 219C748.853 219 736.907 220.707 725.92 224.12C714.827 227.533 704.907 232.547 696.16 239.16C687.413 245.773 679.947 253.827 673.76 263.32C667.573 272.707 662.827 283.48 659.52 295.64C656.213 307.693 654.56 320.92 654.56 335.32C654.56 352.813 657.12 368.707 662.24 383C667.36 397.187 674.667 409.347 684.16 419.48C693.547 429.613 704.8 437.4 717.92 442.84C731.04 448.28 745.707 451 761.92 451ZM761.76 427.64C749.813 427.64 739.2 425.56 729.92 421.4C720.533 417.24 712.533 411.16 705.92 403.16C699.2 395.16 694.133 385.453 690.72 374.04C687.2 362.627 685.44 349.72 685.44 335.32C685.44 320.92 687.2 308.013 690.72 296.6C694.133 285.08 699.147 275.32 705.76 267.32C712.373 259.213 720.427 253.027 729.92 248.76C739.307 244.493 749.973 242.36 761.92 242.36C773.867 242.36 784.533 244.493 793.92 248.76C803.307 252.92 811.307 259.053 817.92 267.16C824.427 275.16 829.387 284.92 832.8 296.44C836.213 307.853 837.92 320.813 837.92 335.32C837.92 349.613 836.213 362.467 832.8 373.88C829.28 385.293 824.213 395 817.6 403C810.987 411 802.987 417.133 793.6 421.4C784.107 425.56 773.493 427.64 761.76 427.64Z" fill="#2D86B1"/>
</g>
<g clip-path="url(#clip30_76_9)">
<rect width="115" height="230" transform="matrix(-1 0 0 1 539 351)" fill="#71BFE5"/>
<path d="M528 584C540.267 584 551.733 582.24 562.4 578.72C573.067 575.2 582.72 570.133 591.36 563.52C600 556.8 607.413 548.693 613.6 539.2C619.787 529.707 624.533 518.987 627.84 507.04C631.147 494.987 632.8 481.92 632.8 467.84C632.8 450.027 630.24 434.027 625.12 419.84C620 405.547 612.8 393.333 603.52 383.2C594.133 373.067 583.147 365.333 570.56 360C557.867 354.667 544.053 352 529.12 352C512.053 352 496.96 354.827 483.84 360.48C470.72 366.027 459.84 374.24 451.2 385.12C442.56 396 436.48 409.387 432.96 425.28C432.64 426.667 433.227 427.36 434.72 427.36H461.6C462.667 427.36 463.36 426.827 463.68 425.76C467.307 409.013 474.773 396.427 486.08 388C497.387 379.467 511.68 375.2 528.96 375.2C539.947 375.2 549.92 377.28 558.88 381.44C567.84 385.6 575.573 391.733 582.08 399.84C588.48 407.84 593.387 417.6 596.8 429.12C600.213 440.64 601.92 453.707 601.92 468.32C601.92 479.733 600.8 490.293 598.56 500C596.32 509.6 593.067 518.187 588.8 525.76C584.533 533.227 579.36 539.573 573.28 544.8C567.2 550.027 560.373 554.027 552.8 556.8C545.227 559.467 537.013 560.8 528.16 560.8C513.44 560.8 501.013 557.813 490.88 551.84C480.64 545.76 472.853 537.173 467.52 526.08C462.187 514.987 459.413 501.813 459.2 486.56H528.96C530.24 486.56 530.88 485.92 530.88 484.64V465.92C530.88 464.64 530.24 464 528.96 464H429.76C428.48 464 427.84 464.747 427.84 466.24C427.52 491.627 431.147 513.12 438.72 530.72C446.187 548.213 457.44 561.493 472.48 570.56C487.413 579.52 505.92 584 528 584Z" fill="#2D86B1"/>
</g>
<g clip-path="url(#clip31_76_9)">
<rect width="230" height="115" transform="matrix(-1 0 0 1 230 466)" fill="#71BFE5"/>
<path d="M141.64 700C142.92 700 143.56 699.36 143.56 698.08L142.44 589.12L143.24 498.72H206.44C207.72 498.72 208.36 498.08 208.36 496.8V477.92C208.36 476.64 207.72 476 206.44 476H49.64C48.36 476 47.72 476.64 47.72 477.92V496.8C47.72 498.08 48.36 498.72 49.64 498.72H112.84L113.64 589.12L112.52 698.08C112.52 699.36 113.16 700 114.44 700H141.64Z" fill="#2D86B1"/>
</g>
<g clip-path="url(#clip32_76_9)">
<rect width="115" height="114" transform="matrix(-1 0 0 1 78 235)" fill="#71BFE5"/>
<path d="M113.76 358C115.04 358 115.68 357.36 115.68 356.08L115.04 242.48L115.68 135.92C115.68 134.64 115.04 134 113.76 134H34.56C17.6 134 2.98666 136.453 -9.28001 141.36C-21.6533 146.267 -31.1467 153.573 -37.76 163.28C-44.3733 172.987 -47.68 185.04 -47.68 199.44C-47.68 217.573 -42.6667 231.867 -32.64 242.32C-22.72 252.773 -9.38667 259.6 7.35999 262.8L-51.84 355.6C-52.2667 356.24 -52.3733 356.827 -52.16 357.36C-51.9467 357.787 -51.4667 358 -50.72 358H-20C-18.9333 358 -18.1867 357.573 -17.76 356.72L4.32 320.4L38.88 265.68C39.0933 265.68 39.3067 265.68 39.52 265.68C39.7333 265.68 39.9467 265.68 40.16 265.68H85.92L85.44 356.08C85.44 357.36 86.08 358 87.36 358H113.76ZM86.08 243.44H31.36C21.5467 243.44 12.9067 241.947 5.43999 238.96C-2.02667 235.973 -7.84001 231.333 -12 225.04C-16.2667 218.64 -18.4 210.267 -18.4 199.92C-18.4 185.52 -13.9733 174.693 -5.12001 167.44C3.73333 160.08 16.0533 156.4 31.84 156.4H85.6L86.08 243.44Z" fill="#2D86B1"/>
</g>
<g clip-path="url(#clip33_76_9)">
<rect width="115.2" height="115.5" transform="matrix(-1 0 0 1 654.2 350.5)" fill="#71BFE5"/>
<path d="M563.84 576.5C565.12 576.5 565.76 575.86 565.76 574.58L564.64 465.62L565.44 375.22H628.64C629.92 375.22 630.56 374.58 630.56 373.3V354.42C630.56 353.14 629.92 352.5 628.64 352.5H471.84C470.56 352.5 469.92 353.14 469.92 354.42V373.3C469.92 374.58 470.56 375.22 471.84 375.22H535.04L535.84 465.62L534.72 574.58C534.72 575.86 535.36 576.5 536.64 576.5H563.84Z" fill="#2D86B1"/>
</g>
<g clip-path="url(#clip34_76_9)">
<rect width="230" height="116" transform="matrix(-1 0 0 1 654 235)" fill="#71BFE5"/>
<path d="M600.76 349C602.04 349 602.68 348.36 602.68 347.08L602.04 233.48L602.68 126.92C602.68 125.64 602.04 125 600.76 125H521.56C504.6 125 489.987 127.453 477.72 132.36C465.347 137.267 455.853 144.573 449.24 154.28C442.627 163.987 439.32 176.04 439.32 190.44C439.32 208.573 444.333 222.867 454.36 233.32C464.28 243.773 477.613 250.6 494.36 253.8L435.16 346.6C434.733 347.24 434.627 347.827 434.84 348.36C435.053 348.787 435.533 349 436.28 349H467C468.067 349 468.813 348.573 469.24 347.72L491.32 311.4L525.88 256.68C526.093 256.68 526.307 256.68 526.52 256.68C526.733 256.68 526.947 256.68 527.16 256.68H572.92L572.44 347.08C572.44 348.36 573.08 349 574.36 349H600.76ZM573.08 234.44H518.36C508.547 234.44 499.907 232.947 492.44 229.96C484.973 226.973 479.16 222.333 475 216.04C470.733 209.64 468.6 201.267 468.6 190.92C468.6 176.52 473.027 165.693 481.88 158.44C490.733 151.08 503.053 147.4 518.84 147.4H572.6L573.08 234.44Z" fill="#2D86B1"/>
</g>
<g clip-path="url(#clip35_76_9)">
<rect width="115" height="115" transform="matrix(-1 0 0 1 654 466)" fill="#71BFE5"/>
<path d="M569.56 653.4C570.2 653.4 570.68 653.187 571 652.76C571.32 652.44 571.373 651.907 571.16 651.16L552.92 599.48L618.2 436.44C618.733 434.947 618.2 434.2 616.6 434.2H587.64C586.573 434.2 585.827 434.733 585.4 435.8L554.68 517.88L538.52 561.4L524.92 517.88L498.68 435.8C498.36 434.733 497.613 434.2 496.44 434.2H470.36C469.613 434.2 469.08 434.413 468.76 434.84C468.44 435.16 468.44 435.693 468.76 436.44L543.64 651.8C543.96 652.867 544.707 653.4 545.88 653.4H569.56Z" fill="#2D86B1"/>
</g>
<g clip-path="url(#clip36_76_9)">
<rect width="231" height="115" transform="matrix(-1 0 0 1 885 466)" fill="#71BFE5"/>
<path d="M739.48 678L702.36 655.92L677.72 654.32H653.24C651.96 654.32 651.32 654.96 651.32 656.24V676.08C651.32 677.36 651.96 678 653.24 678H739.48ZM760.92 682C773.72 682 785.667 680.24 796.76 676.72C807.747 673.2 817.613 668.133 826.36 661.52C835.107 654.8 842.573 646.693 848.76 637.2C854.947 627.707 859.693 616.987 863 605.04C866.2 593.093 867.8 580.133 867.8 566.16C867.8 548.347 865.293 532.293 860.28 518C855.16 503.6 847.907 491.333 838.52 481.2C829.133 471.067 817.88 463.333 804.76 458C791.533 452.667 776.867 450 760.76 450C747.853 450 735.907 451.707 724.92 455.12C713.827 458.533 703.907 463.547 695.16 470.16C686.413 476.773 678.947 484.827 672.76 494.32C666.573 503.707 661.827 514.48 658.52 526.64C655.213 538.693 653.56 551.92 653.56 566.32C653.56 583.813 656.12 599.707 661.24 614C666.36 628.187 673.667 640.347 683.16 650.48C692.547 660.613 703.8 668.4 716.92 673.84C730.04 679.28 744.707 682 760.92 682ZM760.76 658.64C748.813 658.64 738.2 656.56 728.92 652.4C719.533 648.24 711.533 642.16 704.92 634.16C698.2 626.16 693.133 616.453 689.72 605.04C686.2 593.627 684.44 580.72 684.44 566.32C684.44 551.92 686.2 539.013 689.72 527.6C693.133 516.08 698.147 506.32 704.76 498.32C711.373 490.213 719.427 484.027 728.92 479.76C738.307 475.493 748.973 473.36 760.92 473.36C772.867 473.36 783.533 475.493 792.92 479.76C802.307 483.92 810.307 490.053 816.92 498.16C823.427 506.16 828.387 515.92 831.8 527.44C835.213 538.853 836.92 551.813 836.92 566.32C836.92 580.613 835.213 593.467 831.8 604.88C828.28 616.293 823.213 626 816.6 634C809.987 642 801.987 648.133 792.6 652.4C783.107 656.56 772.493 658.64 760.76 658.64Z" fill="#2D86B1"/>
</g>
<path d="M-361.5 1468C-374.833 1468 -381.5 1461.33 -381.5 1448L-376.5 606.75L-381.5 -262C-381.5 -275.333 -374.833 -282 -361.5 -282H397.25C552.25 -282 683.917 -260.75 792.25 -218.25C900.583 -175.75 982.667 -112.417 1038.5 -28.25C1095.17 55.9166 1123.5 160.917 1123.5 286.75C1123.5 410.917 1091.42 516.75 1027.25 604.25C963.083 690.917 870.583 755.5 749.75 798L1171 1444.25C1175.17 1450.92 1176 1456.75 1173.5 1461.75C1171.83 1465.92 1166.83 1468 1158.5 1468H663.5C651.833 1468 643.5 1463.42 638.5 1454.25L383.5 1029.25L266 853C265.167 853 263.917 853 262.25 853C260.583 853 258.917 853 257.25 853H83.5L87.25 1448C87.25 1461.33 80.5834 1468 67.25 1468H-361.5ZM83.5 524.25H422.25C463.917 524.25 503.917 516.75 542.25 501.75C580.583 485.917 611.833 461.75 636 429.25C661 395.917 673.5 351.75 673.5 296.75C673.5 210.917 650.583 148 604.75 108C559.75 67.1666 494.75 46.7499 409.75 46.7499H86L83.5 524.25Z" fill="white"/>
<defs>
<clipPath id="clip0_76_9">
<rect width="230.4" height="115.297" fill="white" transform="translate(1267 13)"/>
</clipPath>
<clipPath id="clip1_76_9">
<rect width="230" height="231.592" fill="white" transform="translate(1267 127.798)"/>
</clipPath>
<clipPath id="clip2_76_9">
<rect width="115" height="115.796" fill="white" transform="translate(1152 243.594)"/>
</clipPath>
<clipPath id="clip3_76_9">
<rect width="173" height="114.798" fill="white" transform="translate(1267 358.392)"/>
</clipPath>
<clipPath id="clip4_76_9">
<rect width="115" height="114.798" fill="white" transform="translate(1152 359.39)"/>
</clipPath>
<clipPath id="clip5_76_9">
<rect width="288" height="114.798" fill="white" transform="translate(1152 466.202)"/>
</clipPath>
<clipPath id="clip6_76_9">
<rect width="173" height="223.606" fill="white" transform="translate(979 357.394)"/>
</clipPath>
<clipPath id="clip7_76_9">
<rect width="115" height="230.594" fill="white" transform="translate(1152 13)"/>
</clipPath>
<clipPath id="clip8_76_9">
<rect width="230.4" height="230.594" fill="white" transform="translate(-27 13)"/>
</clipPath>
<clipPath id="clip9_76_9">
<rect width="115" height="115.796" fill="white" transform="translate(0 243.594)"/>
</clipPath>
<clipPath id="clip10_76_9">
<rect width="115" height="115.796" fill="white" transform="translate(115 243.594)"/>
</clipPath>
<clipPath id="clip11_76_9">
<rect width="230.4" height="230.594" fill="white" transform="translate(230.4 13)"/>
</clipPath>
<clipPath id="clip12_76_9">
<rect width="115.2" height="115.297" fill="white" transform="translate(806.4 243.594)"/>
</clipPath>
<clipPath id="clip13_76_9">
<rect width="231" height="115.297" fill="white" transform="translate(921 243.594)"/>
</clipPath>
<clipPath id="clip14_76_9">
<rect width="115.2" height="115.297" fill="white" transform="translate(1036.8 13)"/>
</clipPath>
<clipPath id="clip15_76_9">
<rect width="115.2" height="115.297" fill="white" transform="translate(1036.8 128.297)"/>
</clipPath>
<clipPath id="clip16_76_9">
<rect width="115.2" height="115.297" fill="white" transform="translate(460.8 128.297)"/>
</clipPath>
<clipPath id="clip17_76_9">
<rect width="115.2" height="115.297" fill="white" transform="translate(576 128.297)"/>
</clipPath>
<clipPath id="clip18_76_9">
<rect width="230.4" height="115.297" fill="white" transform="translate(460.8 13)"/>
</clipPath>
<clipPath id="clip19_76_9">
<rect width="230.4" height="230.594" fill="white" transform="translate(691.2 13)"/>
</clipPath>
<clipPath id="clip20_76_9">
<rect width="115.2" height="230.594" fill="white" transform="translate(921.6 13)"/>
</clipPath>
<clipPath id="clip21_76_9">
<rect width="230.4" height="115.297" fill="white" transform="translate(576 243.594)"/>
</clipPath>
<clipPath id="clip22_76_9">
<rect width="115.2" height="115.297" fill="white" transform="translate(460.8 243.594)"/>
</clipPath>
<clipPath id="clip23_76_9">
<rect width="231" height="115.796" fill="white" transform="translate(230 243.594)"/>
</clipPath>
<clipPath id="clip24_76_9">
<rect width="230" height="117" fill="white" transform="matrix(-1 0 0 1 230 359)"/>
</clipPath>
<clipPath id="clip25_76_9">
<rect width="194" height="222" fill="white" transform="matrix(-1 0 0 1 424 359)"/>
</clipPath>
<clipPath id="clip26_76_9">
<rect width="230.4" height="231" fill="white" transform="matrix(-1 0 0 1 1115 235)"/>
</clipPath>
<clipPath id="clip27_76_9">
<rect width="115" height="115" fill="white" transform="matrix(-1 0 0 1 1115 466)"/>
</clipPath>
<clipPath id="clip28_76_9">
<rect width="115" height="115" fill="white" transform="matrix(-1 0 0 1 1000 466)"/>
</clipPath>
<clipPath id="clip29_76_9">
<rect width="231" height="231" fill="white" transform="matrix(-1 0 0 1 885 235)"/>
</clipPath>
<clipPath id="clip30_76_9">
<rect width="115" height="230" fill="white" transform="matrix(-1 0 0 1 539 351)"/>
</clipPath>
<clipPath id="clip31_76_9">
<rect width="230" height="115" fill="white" transform="matrix(-1 0 0 1 230 466)"/>
</clipPath>
<clipPath id="clip32_76_9">
<rect width="115" height="114" fill="white" transform="matrix(-1 0 0 1 78 235)"/>
</clipPath>
<clipPath id="clip33_76_9">
<rect width="115.2" height="115.5" fill="white" transform="matrix(-1 0 0 1 654.2 350.5)"/>
</clipPath>
<clipPath id="clip34_76_9">
<rect width="230" height="116" fill="white" transform="matrix(-1 0 0 1 654 235)"/>
</clipPath>
<clipPath id="clip35_76_9">
<rect width="115" height="115" fill="white" transform="matrix(-1 0 0 1 654 466)"/>
</clipPath>
<clipPath id="clip36_76_9">
<rect width="231" height="115" fill="white" transform="matrix(-1 0 0 1 885 466)"/>
</clipPath>
</defs>
</svg>
