<svg width="1440" height="1599" viewBox="0 0 1440 1599" fill="none" xmlns="http://www.w3.org/2000/svg">
<path d="M9.3249 975C-0.541764 975 -5.4751 970.067 -5.4751 960.2L-1.7751 563.375V37.05C-1.7751 27.1833 3.15824 22.25 13.0249 22.25H304.4C314.267 22.25 318.892 27.1833 318.275 37.05L313.65 137.875C335.233 105.808 360.517 79.6 389.5 59.25C418.483 38.9 450.242 24.1 484.775 14.85C519.308 4.98336 556 0.0500488 594.85 0.0500488C658.367 0.0500488 712.325 12.6917 756.725 37.9751C801.125 62.6417 834.425 100.567 856.625 151.75C879.442 112.9 905.342 82.6833 934.325 61.1C963.308 38.9 994.758 23.175 1028.67 13.925C1062.59 4.67504 1098.67 0.0500488 1136.9 0.0500488C1204.73 0.0500488 1262.08 14.2334 1308.95 42.6001C1356.43 70.9667 1392.2 112.283 1416.25 166.55C1440.3 220.2 1452.32 284.95 1452.32 360.8V602.225L1456.95 960.2C1456.95 970.067 1452.02 975 1442.15 975H1134.12C1124.26 975 1119.32 970.067 1119.32 960.2L1123.95 602.225V384.85C1123.95 352.167 1120.25 325.342 1112.85 304.375C1105.45 282.792 1094.97 267.067 1081.4 257.2C1067.83 246.717 1051.49 241.475 1032.38 241.475C1008.94 241.475 986.433 251.65 964.85 272C943.883 292.35 926.617 322.875 913.05 363.575C899.483 403.658 892.083 453.3 890.85 512.5C890.85 513.117 890.85 513.425 890.85 513.425C890.85 513.425 890.85 513.733 890.85 514.35V602.225L895.475 960.2C895.475 970.067 890.542 975 880.675 975H572.65C562.783 975 557.85 970.067 557.85 960.2L562.475 602.225V384.85C562.475 352.167 558.775 325.342 551.375 304.375C544.592 282.792 534.108 267.067 519.925 257.2C506.358 246.717 490.017 241.475 470.9 241.475C452.4 241.475 434.517 247.642 417.25 259.975C400.6 272.308 385.492 290.808 371.925 315.475C358.975 340.142 348.8 370.975 341.4 407.975C334 444.975 329.992 487.833 329.375 536.55V604.075L334 960.2C334 970.067 329.067 975 319.2 975H9.3249Z" fill="#71BFE5"/>
<path d="M-9.72748e-05 240H1440V1599H-9.72748e-05V240Z" fill="#71BFE5"/>
</svg>
